<svg version="1.1" id="Ebene_1" xmlns="http://www.w3.org/2000/svg" x="0" y="0" viewBox="0 0 276.277 29.543" xml:space="preserve"><style>.st0{fill:#fefefe}</style><path class="st0" d="M28.71 29.127V2.538l-8.53 26.589h-7.073L4.577 2.538v26.589H0V0h8.53l8.114 25.59L24.758 0h8.53v29.127h-4.577zM36.613 19.266c0-5.95 4.286-10.279 10.153-10.279 6.034 0 10.153 4.411 10.153 10.279 0 5.95-4.286 10.277-10.153 10.277-5.991 0-10.153-4.452-10.153-10.277zm15.937 0c0-3.454-2.122-6.326-5.784-6.326-3.62 0-5.783 2.872-5.783 6.326 0 3.412 2.205 6.324 5.783 6.324 3.62 0 5.784-2.871 5.784-6.324zM70.253 9.403h4.825V3.12h4.37v6.283h5.825v3.745h-5.825v15.979h-4.37V13.148H69.28c-3.003 0-4.812 1.346-4.812 3.288v12.691H60.1V9.403h4.37v3.287c.79-2.163 3.003-3.287 5.784-3.287M87.559 1.248h4.785v4.785h-4.785V1.248zm4.577 8.155v19.724h-4.37V9.403h4.37zM101.205 9.403v2.788c1.04-2.247 2.788-3.204 5.202-3.204 2.705 0 4.494 1.54 5.2 4.12.916-2.539 2.872-4.12 5.618-4.12 4.161 0 6.034 2.913 6.034 6.825v13.315h-4.37V16.769c0-2.123-1.04-3.87-3.328-3.87-2.247 0-3.33 1.79-3.33 3.87v12.358h-4.368V16.769c0-2.123-1.04-3.87-3.33-3.87-2.496 0-3.328 2.122-3.328 4.286v11.942h-4.369V9.403h4.37zM141.73 21.638l3.745 1.456c-1.457 4.244-4.62 6.449-9.113 6.449-6.325 0-10.237-4.327-10.237-10.402 0-5.743 3.828-10.154 9.613-10.154 5.368 0 8.905 3.412 8.905 8.698 0 .79-.084 1.539-.208 2.288h-13.94c0 3.495 2.413 5.825 5.909 5.825 2.746 0 4.743-1.456 5.326-4.16zm-11.236-4.577h9.78l.04-.375c0-2.706-2.121-3.954-4.617-3.954-2.706 0-4.786 1.623-5.203 4.329zM152.712 9.403v2.871c.79-2.163 2.497-3.287 4.785-3.287 3.246 0 5.7 2.29 5.7 5.576 0 .874-.083 1.707-.291 2.498h-4.327a7.527 7.527 0 0 0 .166-1.665c0-1.665-1.331-2.664-2.912-2.664-1.998 0-3.121 1.373-3.121 3.288v13.107h-4.37V9.403h4.37zM166.98 0h13.732c4.577 0 9.362 2.663 9.362 7.697 0 3.121-1.79 5.243-4.577 6.45 3.537.874 5.617 3.413 5.617 7.074 0 5.16-4.951 7.906-9.57 7.906H166.98V0zm13.523 12.066c2.664 0 4.994-.957 4.994-3.952 0-2.788-2.621-3.745-4.994-3.745h-8.946v7.697h8.946zm.833 12.692c2.538 0 4.993-1.331 4.993-4.161 0-2.788-2.413-4.37-4.993-4.37h-9.779v8.53h9.779zM194.106 23.51c0-4.535 3.412-6.325 7.532-6.325 1.206 0 2.371.125 3.495.416l2.08.5v-1.457c0-2.705-1.997-4.12-4.577-4.12-2.496 0-4.369 1.415-4.785 3.912l-3.953-1.04c1-4.328 4.453-6.409 8.738-6.409 5.16 0 8.739 2.414 8.739 7.865v12.275h-4.162v-3.33c-1.123 2.748-3.828 3.746-6.616 3.746-3.495 0-6.491-2.455-6.491-6.033zm13.107-1.872v-.208l-1.58-.417c-1.416-.374-2.497-.541-3.288-.541-1.748 0-3.662.54-3.662 2.622 0 .79.292 1.415.916 1.914.582.54 1.498.79 2.746.79 2.621 0 4.868-1.331 4.868-4.16zM215.574 0h4.37v29.127h-4.37V0zM226.764 13.148h-3.953V9.403h3.953V3.12h4.37v6.283h5.825v3.745h-5.825v15.979h-4.37V13.148zM256.64 9.403v19.724h-4.37v-3.12c-1.415 2.37-3.454 3.536-6.117 3.536-4.7 0-7.198-2.871-7.198-7.49V9.404h4.37v11.61c0 2.58 1.081 4.785 3.952 4.785 3.453 0 4.993-2.912 4.993-6.033V9.403h4.37zM259.383 24.134l3.536-1.872c1.082 2.455 2.788 3.536 5.493 3.536 1.415 0 3.703-.457 3.703-2.288 0-.874-.333-1.581-.998-2.04-.666-.457-1.956-.831-3.87-1.122-3.287-.541-6.782-1.873-6.782-5.785 0-3.828 4.077-5.576 7.364-5.576 3.288 0 5.826 1.207 7.24 4.286l-3.328 1.831c-.583-1.748-1.873-2.622-3.87-2.622-1.248 0-3.454.541-3.454 2.164 0 .75.375 1.29 1.082 1.624.708.374 2.04.666 3.912.957 3.661.54 6.866 1.83 6.866 6.075 0 4.286-4.287 6.241-8.032 6.241-3.91 0-7.364-1.622-8.862-5.41z"/></svg>