<svg width="176" height="189" xmlns="http://www.w3.org/2000/svg"><path fill-rule="evenodd" clip-rule="evenodd" d="M95.206 189c19.216-2.172 31.662-5.431 44.546-11.948 23.801-11.949 36.248-29.98 36.248-52.79 0-17.379-7.206-30.848-21.836-41.059-7.643-5.43-13.975-8.255-23.147-10.21a55.984 55.984 0 0 1 1.007-2.747c.445-1.145.962-2.475 1.832-5.074l.001-.002c1.704-4.315 2.199-5.568 2.654-6.63l.125-.288c.146-.334.298-.676.496-1.117l-20.745-5.866c-.655 5.214-2.184 10.862-4.804 17.596-4.731-.18-7.339-.21-10.352-.216h-1.876c-10.263 0-17.47.868-28.824 3.258.071-2.699.12-4.515.19-6.3l.026-.63c.148-3.47.401-7.198 1.094-17.396v-.005c19.434-.435 50.879-3.693 77.082-7.82l1.575-.25.007-.001c2.913-.463 4.088-.65 6.716-.836l-1.092-21.072c-17.032 5.648-48.04 9.993-82.978 11.948.233-2.82.46-5.35.683-7.638l.168-1.671c.977-9.49 1.94-14.54 3.298-18.933L54.372 0c.219 1.52.219 2.607.219 3.476 0 2.39-.219 9.776-.437 12.383v.001c-.437 6.371-.583 8.495-.76 10.62l-.046.533c-.077.896-.164 1.853-.285 3.178l-.001.006h-4.804c-18.78 0-31.444-1.087-41.052-3.26V47.36c1.965-.218 3.494-.218 4.367-.218.67 0 2.89.084 5.872.196 2.537.095 5.624.211 8.776.314l1.374.044c1.146.035 2.291.069 3.412.098 5.395.383 9.09.429 12.735.434h8.447c-.874 15.859-.874 15.86-1.092 28.894-12.884 5.43-20.963 10.862-29.698 19.334C7.643 109.924 0 126.652 0 144.031c0 20.855 13.102 35.845 31.226 35.845 15.94 0 32.317-8.255 49.786-24.983 18.124-17.379 30.789-36.062 43.673-65.172 18.997 5.865 29.479 17.596 29.479 33.238 0 18.031-13.102 32.369-36.685 40.407-10.263 3.258-18.78 4.562-32.1 4.996 5.896 8.907 7.425 12.383 9.827 20.638zm-22.182-51.645c-.1-.397-.153-.613-.183-.834-.036-.266-.036-.537-.036-1.136-.219-1.094-.219-1.094-.437-2.845-1.312-10.941-1.53-19.257-1.968-42.016 8.964-3.283 18.147-4.815 29.515-4.815 2.187 0 3.061 0 5.685.438-7.87 17.945-16.179 31.512-29.078 46.831l-.001.001c-.574.738-.932 1.199-1.26 1.615l-.324.408c-.437.547-.928 1.147-1.91 2.348v.001l-.003.004zM19.8 141.873c0 10.475 5.466 17.458 13.555 17.458 6.997 0 13.774-2.837 21.645-9.166-2.842-15.276-3.935-29.243-4.154-53.467-9.401 5.674-14.648 9.82-19.677 16.149-7.434 9.166-11.369 19.205-11.369 29.026z"/></svg>
